<svg width="64" height="71" viewBox="0 0 64 71" fill="none" xmlns="http://www.w3.org/2000/svg">
<path d="M62.0802 8.27764C62.0802 7.97897 61.9842 7.74431 61.7922 7.57364C61.6002 7.40297 61.3548 7.31764 61.0562 7.31764L45.2482 8.66164C44.6935 8.66164 44.2028 8.82164 43.7762 9.14164C43.3495 9.46164 43.0295 9.87764 42.8162 10.3896L38.2722 22.4216H19.2642L18.3042 20.5656L31.9362 12.9496C32.1068 12.8643 32.2348 12.7256 32.3202 12.5336C32.4055 12.3416 32.4375 12.139 32.4162 11.9256C32.3948 11.7123 32.3095 11.5416 32.1602 11.4136C32.0108 11.2856 31.8295 11.2003 31.6162 11.1576L12.9282 7.31764L10.9442 3.79764C10.8162 3.58431 10.6242 3.43497 10.3682 3.34964C10.1122 3.26431 9.8775 3.28564 9.66416 3.41364L6.72016 5.07764C6.50683 5.20564 6.3575 5.39764 6.27216 5.65364C6.18683 5.90964 6.20816 6.14431 6.33616 6.35764L8.32016 9.87764L1.79216 27.8616C1.66416 28.2456 1.76016 28.5763 2.08016 28.8536C2.40016 29.131 2.75216 29.1843 3.13616 29.0136L12.9282 23.5736L16.6402 21.4616L17.1522 22.4216H16.4482C16.1922 22.4216 15.9788 22.507 15.8082 22.6776L4.54416 32.7256C4.41616 32.8536 4.33083 33.003 4.28816 33.1736L3.90416 34.7096C3.90416 34.795 3.88283 34.923 3.84016 35.0936L3.77616 35.2216V35.4776L3.64816 35.9896V36.2456L3.52016 37.0776C3.52016 37.2483 3.49883 37.3763 3.45616 37.4616V37.8456C3.45616 38.0163 3.43483 38.1656 3.39216 38.2936V39.1256C3.39216 39.2536 3.37083 39.339 3.32816 39.3816V40.2136C3.32816 44.1816 3.85083 47.7763 4.89616 50.9976C5.9415 54.219 7.46683 56.9816 9.47216 59.2856C14.1655 64.619 21.1415 67.2856 30.4002 67.2856C39.9575 67.2856 47.0188 64.619 51.5842 59.2856C55.5095 54.7203 57.4722 48.363 57.4722 40.2136V39.1256C57.4722 38.955 57.4508 38.7843 57.4082 38.6136V38.2936C57.4082 38.0803 57.3868 37.931 57.3442 37.8456V37.4616C57.3442 37.291 57.3228 37.163 57.2802 37.0776C57.2802 36.8216 57.2588 36.5443 57.2162 36.2456C57.1735 36.203 57.1415 36.107 57.1202 35.9576C57.0988 35.8083 57.0882 35.6483 57.0882 35.4776C57.0455 35.3923 57.0242 35.307 57.0242 35.2216L56.8962 34.6456C56.8535 34.347 56.7682 33.9416 56.6402 33.4296L56.5762 33.1736C56.5335 33.003 56.4268 32.8536 56.2562 32.7256L44.9922 22.6776C44.8215 22.507 44.6082 22.4216 44.3522 22.4216H44.0322L47.2322 13.9736L61.3122 12.7576C61.5682 12.7576 61.7815 12.6616 61.9522 12.4696C62.1228 12.2776 62.2082 12.0536 62.2082 11.7976L62.0802 8.27764ZM45.6962 12.7576L41.9842 22.4216H40.3202L44.6082 11.0296C44.7362 10.731 44.9708 10.5603 45.3122 10.5176L60.2242 9.30164L60.2882 10.9016L46.4642 12.1176C46.0802 12.1603 45.8242 12.3736 45.6962 12.7576ZM33.4082 48.7896V50.7096H54.1442C53.8028 51.7763 53.3975 52.8216 52.9282 53.8456H33.4082V55.7656H51.8402C50.9442 57.1736 49.8988 58.4323 48.7042 59.5416H33.4082V61.4616H46.2722C42.2615 64.0643 36.9708 65.3656 30.4002 65.3656C23.6588 65.3656 18.2402 63.8936 14.1442 60.9496C10.8162 58.5176 8.4055 55.1683 6.91216 50.9016C5.80283 47.7443 5.24816 44.1816 5.24816 40.2136V39.3816L5.37616 37.4616L5.50416 36.6936C6.91216 37.675 8.4695 38.1656 10.1762 38.1656C11.4988 38.1656 12.7682 37.8563 13.9842 37.2376C15.2002 36.619 16.1922 35.7763 16.9602 34.7096C17.7282 35.7763 18.7095 36.619 19.9042 37.2376C21.0988 37.8563 22.3575 38.1656 23.6802 38.1656C24.6188 38.1656 25.5362 37.995 26.4322 37.6536C26.7308 37.5256 27.0295 37.3976 27.3282 37.2696C28.5655 36.6723 29.5895 35.819 30.4002 34.7096C31.2535 35.8616 32.3202 36.7363 33.6002 37.3336C33.8988 37.4616 34.1975 37.5896 34.4962 37.7176C35.0082 37.8883 35.5415 38.0163 36.0962 38.1016C36.3948 38.1443 36.7148 38.1656 37.0562 38.1656H37.1842C37.4828 38.1656 37.7815 38.1443 38.0802 38.1016C39.2322 37.9736 40.3202 37.611 41.3442 37.0136C42.3682 36.4163 43.2215 35.6483 43.9042 34.7096C44.6722 35.7763 45.6535 36.619 46.8482 37.2376C48.0428 37.8563 49.3015 38.1656 50.6242 38.1656C52.3735 38.1656 53.9522 37.675 55.3602 36.6936V36.7576C55.3602 36.971 55.3815 37.2056 55.4242 37.4616V37.6536C55.4668 37.7816 55.4882 37.995 55.4882 38.2936C55.4882 38.379 55.5095 38.443 55.5522 38.4856V40.2136C55.5948 43.115 55.2962 45.9736 54.6562 48.7896H33.4082ZM54.9122 34.5816C53.7175 35.691 52.2882 36.2456 50.6242 36.2456C49.3442 36.2456 48.1708 35.8936 47.1042 35.1896C46.0375 34.4856 45.2482 33.5576 44.7362 32.4056C44.5655 32.0643 44.2775 31.8936 43.8722 31.8936C43.4668 31.8936 43.1788 32.0643 43.0082 32.4056C42.6242 33.259 42.0695 34.0056 41.3442 34.6456C40.6188 35.2856 39.8082 35.7336 38.9122 35.9896C38.3575 36.1603 37.7815 36.2456 37.1842 36.2456H36.7362C36.2242 36.203 35.7122 36.0963 35.2002 35.9256C34.9015 35.8403 34.6028 35.7123 34.3042 35.5416C34.0055 35.371 33.7282 35.2003 33.4722 35.0296C32.5335 34.347 31.8082 33.4723 31.2962 32.4056C31.1255 32.0643 30.8375 31.8936 30.4322 31.8936C30.0268 31.8936 29.7388 32.0643 29.5682 32.4056C28.9282 33.8563 27.8828 34.923 26.4322 35.6056C26.1335 35.7763 25.8348 35.9043 25.5362 35.9896C24.9388 36.1603 24.3202 36.2456 23.6802 36.2456C22.4002 36.2456 21.2268 35.8936 20.1602 35.1896C19.0935 34.4856 18.3042 33.5576 17.7922 32.4056C17.6215 32.0643 17.3335 31.8936 16.9282 31.8936C16.5228 31.8936 16.2348 32.0643 16.0642 32.4056C15.5522 33.5576 14.7628 34.4856 13.6962 35.1896C12.6295 35.8936 11.4562 36.2456 10.1762 36.2456C8.51216 36.2456 7.08283 35.691 5.88816 34.5816L6.01616 33.9416L16.8322 24.3416H44.0322L54.7842 33.9416C54.8695 34.1976 54.9122 34.411 54.9122 34.5816ZM4.48016 26.0696L9.53616 12.1176L9.72816 11.5416L9.98416 12.8216L11.3922 22.2296L4.48016 26.0696ZM9.72816 5.52564L10.4962 6.80564H10.3042L10.1762 6.74164H10.1122C10.0695 6.74164 10.0482 6.76297 10.0482 6.80564C10.0482 6.84831 10.0482 6.84831 10.0482 6.80564H9.98416H9.79216L9.72816 6.86964H9.66416C9.66416 6.91231 9.64283 6.93364 9.60016 6.93364L9.53616 6.99764H9.47216C9.47216 6.99764 9.47216 7.00831 9.47216 7.02964C9.47216 7.05098 9.45083 7.06164 9.40816 7.06164C9.3655 7.06164 9.3655 7.06164 9.40816 7.06164V7.12564L9.34416 7.18964C9.34416 7.23231 9.32283 7.25364 9.28016 7.25364V7.38164H9.21616V7.57364L8.44816 6.22964L9.72816 5.52564ZM14.1442 9.49364L28.7362 12.5016L21.8242 16.4056L14.5922 10.2616L13.5682 9.42964L14.1442 9.49364ZM11.7762 12.0536L11.5842 11.0296L11.4562 10.1336L12.9922 11.3496L13.7602 12.0536L20.0322 17.3656L17.4082 18.9016L13.1842 21.2056L11.9042 13.0776L11.7762 12.0536Z" fill="#735C2B"/>
</svg>
