<svg width="66" height="56" viewBox="0 0 66 56" fill="none" xmlns="http://www.w3.org/2000/svg">
<path d="M64.9995 22.0776C64.7009 20.5843 64.1675 19.0056 63.3996 17.3416C61.8635 14.0136 59.8155 11.5176 57.2556 9.85363C56.3169 9.21363 55.2929 8.70163 54.1835 8.31763C56.1462 8.36029 58.0662 8.68029 59.9436 9.27763C60.2849 9.40563 60.5729 9.32029 60.8075 9.02163C61.0422 8.72296 61.0742 8.40296 60.9035 8.06163C59.6236 6.31229 58.0342 4.93629 56.1355 3.93363C54.2369 2.93096 52.2209 2.40829 50.0875 2.36563H49.8955C48.4022 2.36563 46.9942 2.66429 45.6716 3.26163V3.19763C45.4156 2.21629 44.6262 1.51229 43.3036 1.08562C42.4502 0.829628 41.3409 0.701626 39.9755 0.701626C38.7382 0.658958 37.6502 0.786961 36.7115 1.08562C35.3889 1.51229 34.5995 2.21629 34.3435 3.19763V3.26163C32.9355 2.62163 31.4635 2.32296 29.9275 2.36563H29.8635C27.7302 2.40829 25.7142 2.93096 23.8155 3.93363C21.9169 4.93629 20.3275 6.31229 19.0475 8.06163C18.9622 8.23229 18.9195 8.40296 18.9195 8.57363C18.9195 8.74429 18.9835 8.90429 19.1115 9.05363C19.2395 9.20296 19.3889 9.29896 19.5595 9.34163C19.7302 9.38429 19.9009 9.36296 20.0715 9.27763C21.9489 8.68029 23.8689 8.36029 25.8315 8.31763C24.7222 8.70163 23.6982 9.21363 22.7595 9.85363C22.0769 10.2803 21.4369 10.771 20.8395 11.3256L20.3275 11.7736C19.7729 11.091 18.9409 10.7923 17.8315 10.8776C17.0209 10.9203 16.1142 11.123 15.1115 11.4856C14.1089 11.8483 13.2875 12.2856 12.6475 12.7976C11.7515 13.4803 11.3249 14.2483 11.3675 15.1016C10.1729 15.059 8.99955 15.251 7.84755 15.6776C6.18355 16.3176 4.75421 17.3096 3.55955 18.6536C2.36488 19.9976 1.51155 21.523 0.999547 23.2296C0.914214 23.4003 0.914214 23.5816 0.999547 23.7736C1.08488 23.9656 1.21288 24.115 1.38355 24.2216C1.55421 24.3283 1.73555 24.371 1.92755 24.3496C2.11955 24.3283 2.27955 24.2323 2.40755 24.0616C3.38888 23.2936 4.45555 22.6536 5.60755 22.1416C3.94355 23.763 2.83421 25.7043 2.27955 27.9656C1.68221 30.355 1.55421 32.787 1.89555 35.2616C1.93821 35.6456 2.15155 35.8803 2.53555 35.9656C2.91955 36.051 3.21821 35.923 3.43155 35.5816C5.60755 32.0403 8.33821 28.9896 11.6235 26.4296C11.2822 27.1976 11.0689 27.987 10.9835 28.7976C10.7702 30.7603 11.1755 32.851 12.1995 35.0696C12.7542 36.2216 13.4369 37.331 14.2475 38.3976L14.3115 38.4616C14.3969 38.675 14.5462 38.8243 14.7595 38.9096C14.9729 38.995 15.1862 38.995 15.3995 38.9096C15.6129 38.8243 15.7622 38.675 15.8475 38.4616C15.9329 38.2483 15.9329 38.035 15.8475 37.8216C15.6769 34.707 16.0609 31.6563 16.9995 28.6696C17.2555 28.6696 17.5115 28.627 17.7675 28.5416C18.8342 33.875 19.8795 38.1843 20.9035 41.4696C17.3622 42.9203 14.5035 44.7976 12.3275 47.1016C10.1089 49.491 8.91421 52.0723 8.74355 54.8456C8.70088 55.1443 8.78621 55.3896 8.99955 55.5816C9.21288 55.7736 9.46888 55.827 9.76755 55.7416C10.3649 55.571 10.8982 55.2723 11.3675 54.8456C12.0929 54.2056 12.9569 53.8856 13.9595 53.8856C14.9622 53.8856 15.8369 54.2163 16.5835 54.8776C17.3302 55.539 18.2155 55.8696 19.2395 55.8696C20.2635 55.8696 21.1489 55.539 21.8955 54.8776C22.6422 54.2163 23.5169 53.8856 24.5195 53.8856C25.5222 53.8856 26.3969 54.2163 27.1435 54.8776C27.8902 55.539 28.7755 55.8696 29.7995 55.8696C30.8235 55.8696 31.7089 55.539 32.4555 54.8776C33.2022 54.2163 34.0769 53.8856 35.0795 53.8856C36.0822 53.8856 36.9569 54.2056 37.7035 54.8456C38.4502 55.4856 39.3249 55.8056 40.3275 55.8056C41.3302 55.8056 42.2049 55.4856 42.9515 54.8456C43.6982 54.2056 44.5729 53.8856 45.5756 53.8856C46.5782 53.8856 47.4529 54.2163 48.1996 54.8776C48.9462 55.539 49.8316 55.8696 50.8555 55.8696C51.8796 55.8696 52.7649 55.539 53.5116 54.8776C54.2582 54.2163 55.1329 53.8856 56.1355 53.8856C57.1382 53.8856 58.0022 54.2056 58.7276 54.8456C59.1969 55.2723 59.7302 55.571 60.3275 55.7416C60.6262 55.827 60.8929 55.7736 61.1275 55.5816C61.3622 55.3896 61.4582 55.1443 61.4156 54.8456C61.2449 52.6696 60.4662 50.611 59.0795 48.6696C57.6929 46.7283 55.8155 45.0323 53.4475 43.5816C51.0795 42.131 48.3809 40.979 45.3515 40.1256C45.3089 36.7976 44.7329 30.355 43.6236 20.7976H43.8155C44.2422 20.7976 44.6689 20.7336 45.0956 20.6056C47.5275 23.6776 49.3195 27.091 50.4715 30.8456C50.5142 31.0163 50.6209 31.155 50.7915 31.2616C50.9622 31.3683 51.1329 31.4216 51.3036 31.4216C51.6875 31.4216 51.9436 31.251 52.0715 30.9096C52.2849 30.3976 52.4769 29.6936 52.6475 28.7976C53.0315 27.1763 53.2022 25.619 53.1595 24.1256C53.1169 22.035 52.6902 20.2003 51.8796 18.6216C51.3249 17.5123 50.5782 16.531 49.6395 15.6776C54.7595 17.2136 59.4315 19.6243 63.6555 22.9096C63.9542 23.1656 64.2742 23.187 64.6156 22.9736C64.9569 22.7603 65.0849 22.4616 64.9995 22.0776ZM43.5595 19.0696C43.5169 19.0696 43.4742 19.0696 43.4315 19.0696C43.1329 19.027 42.8342 18.9203 42.5355 18.7496C41.8529 18.4083 41.4049 17.875 41.1915 17.1496V17.0216C41.1062 16.723 41.0849 16.4243 41.1275 16.1256V15.9336C41.2129 15.6776 41.3195 15.4216 41.4475 15.1656V15.1016L41.6395 14.7816C42.1089 14.5683 42.5142 14.2696 42.8555 13.8856C43.0262 13.843 43.2182 13.8003 43.4315 13.7576L43.8155 13.6936H44.0715C44.2422 13.7363 44.4235 13.779 44.6155 13.8216C44.8075 13.8643 44.9889 13.9496 45.1595 14.0776C45.6289 14.3336 45.9809 14.707 46.2155 15.1976C46.4502 15.6883 46.5462 16.1896 46.5035 16.7016C46.4182 17.427 46.0982 18.0243 45.5435 18.4936C45.0315 18.9203 44.4342 19.1123 43.7515 19.0696H43.5595ZM59.4315 53.2456C58.4502 52.5203 57.3622 52.179 56.1675 52.2216C54.8022 52.179 53.5862 52.6056 52.5196 53.5016C52.0502 53.9283 51.4955 54.1416 50.8555 54.1416C50.2155 54.1416 49.6609 53.9283 49.1915 53.5016C48.1675 52.6483 46.9729 52.2216 45.6075 52.2216C44.2422 52.2216 43.0476 52.6483 42.0235 53.5016C41.5542 53.9283 40.9995 54.1416 40.3596 54.1416C39.7195 54.1416 39.1649 53.9283 38.6955 53.5016C37.6289 52.6056 36.4235 52.1576 35.0795 52.1576C33.7355 52.1576 32.5302 52.6056 31.4635 53.5016C30.9942 53.9283 30.4395 54.1416 29.7995 54.1416C29.1595 54.1416 28.6049 53.9283 28.1355 53.5016C27.0689 52.6056 25.8635 52.1576 24.5195 52.1576C23.1755 52.1576 21.9702 52.6056 20.9035 53.5016C20.4342 53.9283 19.8795 54.1416 19.2395 54.1416C18.5995 54.1416 18.0449 53.9283 17.5755 53.5016C16.5515 52.6483 15.3569 52.2216 13.9915 52.2216C12.7969 52.2216 11.7089 52.5843 10.7275 53.3096C11.1542 51.6883 11.9649 50.163 13.1595 48.7336C14.3542 47.3043 15.9115 46.0136 17.8315 44.8616C18.9835 44.179 20.1782 43.5816 21.4155 43.0696C21.5862 43.7096 21.8422 44.307 22.1835 44.8616C22.5249 45.2883 22.9622 45.619 23.4955 45.8536C24.0289 46.0883 24.5942 46.195 25.1915 46.1736C25.7889 46.1523 26.3862 46.0563 26.9835 45.8856C27.1542 45.8856 27.3035 45.8643 27.4315 45.8216L28.6475 45.3736C28.7755 45.331 28.8822 45.267 28.9675 45.1816C31.0582 43.987 32.0395 42.6856 31.9115 41.2776C31.9115 41.0643 31.8902 40.851 31.8475 40.6376L34.6635 40.5096C34.6635 41.0216 34.7062 41.5123 34.7915 41.9816C34.9622 42.707 35.3675 43.3043 36.0075 43.7736C36.9035 44.4563 38.2262 44.7976 39.9755 44.7976C41.4262 44.7976 42.6102 44.5523 43.5275 44.0616C44.4449 43.571 45.0102 42.8776 45.2235 41.9816V41.8536C47.6982 42.5363 50.0449 43.539 52.2635 44.8616C54.1835 46.0136 55.7515 47.3043 56.9675 48.7336C58.1835 50.163 59.0049 51.667 59.4315 53.2456ZM17.6395 26.8136C17.5542 26.8563 17.4689 26.8776 17.3835 26.8776C17.1702 26.9203 16.9569 26.9416 16.7435 26.9416C16.2742 26.9416 15.8582 26.803 15.4955 26.5256C15.1329 26.2483 14.8769 25.8963 14.7275 25.4696C14.5782 25.043 14.5675 24.6163 14.6955 24.1896C14.8235 23.763 15.0582 23.4003 15.3995 23.1016L15.5275 23.0376V22.9736C15.5275 22.9736 15.5489 22.9736 15.5915 22.9736C15.7195 22.8883 15.8475 22.8243 15.9755 22.7816L16.3595 22.6536L16.8075 22.5896C17.2769 22.5896 17.7035 22.739 18.0875 23.0376L18.2795 23.1656C18.4502 23.3363 18.5782 23.507 18.6635 23.6776L18.7275 23.7416V23.8696C18.7702 23.9123 18.7915 23.955 18.7915 23.9976L18.9195 24.2536C18.9622 24.5523 18.9622 24.851 18.9195 25.1496V25.3416C18.7489 25.9816 18.3649 26.451 17.7675 26.7496L17.6395 26.8136ZM14.1195 35.0696C13.0102 33.1923 12.5195 31.1656 12.6475 28.9896C12.7755 28.179 13.0315 27.411 13.4155 26.6856C13.8422 27.4536 14.4609 28.0083 15.2715 28.3496C14.5889 30.5256 14.2049 32.7656 14.1195 35.0696ZM3.43155 32.5736C3.43155 31.1656 3.60221 29.779 3.94355 28.4136C5.18088 23.891 8.18888 21.2243 12.9675 20.4136C13.2235 20.371 13.4262 20.2643 13.5755 20.0936C13.7249 19.923 13.7782 19.7096 13.7355 19.4536C13.6929 19.1976 13.5862 18.995 13.4155 18.8456C13.2449 18.6963 13.0315 18.643 12.7755 18.6856C9.57555 18.771 6.56755 19.603 3.75155 21.1816C4.90355 19.347 6.48221 18.0243 8.48755 17.2136C9.76755 16.7443 11.0689 16.659 12.3915 16.9576C12.7329 17.043 13.0102 16.9363 13.2235 16.6376C13.4369 16.339 13.4582 16.0403 13.2875 15.7416C13.2022 15.5283 13.1382 15.283 13.0955 15.0056C13.0529 14.7283 13.2769 14.419 13.7675 14.0776C14.2582 13.7363 14.9089 13.4163 15.7195 13.1176C16.4875 12.819 17.1809 12.6483 17.7995 12.6056C18.4182 12.563 18.8129 12.6483 18.9835 12.8616C19.0262 12.947 19.0689 13.0536 19.1115 13.1816C17.2769 15.6136 15.9755 18.3016 15.2075 21.2456C14.2689 21.6723 13.6075 22.355 13.2235 23.2936C9.34088 25.7256 6.07688 28.819 3.43155 32.5736ZM26.6635 6.65363C25.2129 6.65363 23.7622 6.78163 22.3115 7.03763C23.3782 6.14163 24.5622 5.42696 25.8635 4.89363C27.1649 4.36029 28.5195 4.07229 29.9275 4.02962H30.0555C31.5915 4.02962 33.0209 4.41363 34.3435 5.18163C34.6849 5.39496 35.0262 5.60829 35.3675 5.82162C35.7942 6.12029 36.1995 6.46163 36.5835 6.84563C36.6689 6.88829 36.7755 6.99496 36.9035 7.16563L37.0315 7.29362C37.0315 7.33629 37.0102 7.35763 36.9675 7.35763L36.9035 7.42163C36.8609 7.42163 36.8396 7.44296 36.8396 7.48563C36.5835 7.65629 36.3702 7.86963 36.1995 8.12563L36.0715 8.38163L35.3675 8.12563H35.2395C34.8555 7.99763 34.4715 7.91229 34.0875 7.86963C31.8262 7.10163 29.4795 6.69629 27.0475 6.65363H26.6635ZM35.9436 3.58163C36.0715 3.19763 36.4982 2.89896 37.2235 2.68563C37.9062 2.51496 38.7169 2.42963 39.6555 2.42963H40.0395C41.0209 2.38696 41.8742 2.45096 42.5995 2.62163C43.4102 2.83496 43.8795 3.15496 44.0075 3.58163C44.0502 3.75229 44.0715 3.94429 44.0715 4.15763C43.0049 4.88296 42.0449 5.71496 41.1915 6.65363C40.3809 6.35496 39.5489 6.31229 38.6955 6.52563C37.8849 5.62963 36.9675 4.84029 35.9436 4.15763C35.9436 3.94429 35.9649 3.75229 36.0075 3.58163H35.9436ZM50.0235 4.02962C51.4315 4.07229 52.7969 4.34962 54.1195 4.86163C55.4422 5.37363 56.6369 6.09896 57.7035 7.03763C56.1249 6.73896 54.5249 6.61096 52.9035 6.65363C50.5142 6.69629 48.1889 7.10163 45.9275 7.86963C45.5009 7.91229 45.0956 7.99763 44.7115 8.12563H44.5835L43.4315 8.50963C43.3462 8.33896 43.2395 8.16829 43.1115 7.99763L42.9835 7.86963C42.8982 7.74163 42.7915 7.63496 42.6635 7.54963C43.0049 7.20829 43.2609 6.97363 43.4315 6.84563C43.8155 6.46163 44.2209 6.12029 44.6475 5.82162C44.9462 5.60829 45.2662 5.39496 45.6075 5.18163C46.9302 4.41363 48.3596 4.02962 49.8955 4.02962H50.0235ZM37.7995 18.3656C37.7569 18.4083 37.6929 18.4723 37.6075 18.5576L37.4795 18.6216C37.2662 18.7496 37.0315 18.8563 36.7755 18.9416H36.5835L36.3915 19.0056C36.0075 19.0483 35.6555 19.0163 35.3355 18.9096C35.0155 18.803 34.7275 18.6643 34.4715 18.4936C34.3009 18.3656 34.1516 18.2163 34.0235 18.0456C33.5969 17.5763 33.3835 17.0216 33.3835 16.3816L33.4475 16.0616C33.4475 15.891 33.4689 15.7203 33.5115 15.5496V15.4856C33.5969 15.2296 33.7249 14.9736 33.8955 14.7176C34.1516 14.3763 34.4822 14.099 34.8876 13.8856C35.2929 13.6723 35.7089 13.5656 36.1355 13.5656L36.3275 13.6296L36.5835 13.8856C37.1382 14.4403 37.7782 14.8243 38.5035 15.0376C38.5035 15.0803 38.5249 15.1016 38.5675 15.1016V15.1656C38.6529 15.4216 38.7169 15.6776 38.7595 15.9336L38.8235 15.9976C38.8235 16.1683 38.8235 16.3603 38.8235 16.5736C38.7809 16.7443 38.7382 16.915 38.6955 17.0856C38.6102 17.427 38.4609 17.7256 38.2475 17.9816C38.1195 18.1096 37.9702 18.2376 37.7995 18.3656ZM34.7275 38.8456C33.5329 38.8456 32.3595 38.9096 31.2075 39.0376C30.1409 36.435 27.9009 32.019 24.4875 25.7896L24.6795 25.6616C25.4902 26.131 26.2795 26.6643 27.0475 27.2616C27.2182 28.499 27.4955 29.715 27.8795 30.9096C27.9222 31.0803 28.0289 31.219 28.1995 31.3256C28.3702 31.4323 28.5409 31.4856 28.7115 31.4856C28.8822 31.4856 29.0422 31.4216 29.1915 31.2936C29.3409 31.1656 29.4369 31.0163 29.4795 30.8456L29.8635 29.8216C30.2475 30.2483 30.8662 30.9736 31.7195 31.9976C31.9755 32.2963 32.2849 32.3816 32.6475 32.2536C33.0102 32.1256 33.1915 31.8696 33.1915 31.4856C33.1489 29.3096 32.7009 27.2403 31.8475 25.2776C32.6155 23.7416 33.5329 22.3123 34.5995 20.9896C35.1542 21.075 35.7302 21.1816 36.3275 21.3096C35.3462 29.2456 34.8129 35.091 34.7275 38.8456ZM21.8635 24.6376C21.7355 24.595 21.6289 24.5523 21.5435 24.5096C21.2875 24.4243 21.0529 24.275 20.8395 24.0616L20.7755 23.9976C20.6475 23.8696 20.5409 23.7416 20.4555 23.6136L20.3275 23.3576L20.2635 23.1016C20.1782 22.8456 20.1569 22.5683 20.1995 22.2696V22.2056C20.3275 21.4803 20.7115 20.947 21.3515 20.6056L21.5435 20.4776C21.9702 20.307 22.3969 20.2643 22.8235 20.3496C23.5489 20.4776 24.0609 20.883 24.3595 21.5656C24.6582 22.2483 24.6369 22.9096 24.2955 23.5496C24.1675 23.8056 23.9969 24.0403 23.7835 24.2536C23.6982 24.2536 23.6555 24.275 23.6555 24.3176C23.5275 24.403 23.3782 24.4883 23.2075 24.5736L22.8235 24.6376L22.6955 24.7016C22.3969 24.7443 22.1195 24.723 21.8635 24.6376ZM18.5355 21.3096L18.7275 21.1816C18.7275 21.267 18.7062 21.331 18.6635 21.3736L18.5355 21.3096ZM32.6795 19.0696C32.8929 19.3256 33.1275 19.5603 33.3835 19.7736L33.1915 19.9656L32.6155 20.7336C31.9755 21.6296 31.3782 22.5683 30.8235 23.5496L30.6315 23.8696C30.5035 24.083 30.4182 24.2536 30.3755 24.3816L29.9275 25.2776C29.5862 25.9603 29.3515 26.4936 29.2235 26.8776L28.8395 27.7096L28.6475 26.3656C28.5195 25.3843 28.4982 24.403 28.5835 23.4216C28.5835 23.1656 28.6262 22.8243 28.7115 22.3976C28.7542 22.099 28.8075 21.7896 28.8715 21.4696C28.9355 21.1496 29.0209 20.8403 29.1275 20.5416C29.2342 20.243 29.3515 19.9656 29.4795 19.7096C29.5649 19.539 29.6289 19.4323 29.6715 19.3896C29.7569 19.1336 29.8422 18.963 29.9275 18.8776C30.3969 18.067 30.9942 17.363 31.7195 16.7656C31.8049 17.619 32.1249 18.387 32.6795 19.0696ZM31.2075 28.7976C30.9942 28.5416 30.7595 28.307 30.5035 28.0936C30.5889 27.8376 30.6955 27.603 30.8235 27.3896L31.2075 28.7976ZM26.2155 21.8856C26.4715 22.0136 26.7275 22.1416 26.9835 22.2696C26.8555 23.1656 26.8129 24.083 26.8555 25.0216C26.4715 24.7656 26.1089 24.5523 25.7675 24.3816C26.1942 23.6136 26.3435 22.7816 26.2155 21.8856ZM28.1355 18.6216C28.0929 18.707 28.0502 18.7923 28.0075 18.8776C26.8129 18.9203 25.6182 19.027 24.4235 19.1976C23.9542 18.9416 23.4635 18.771 22.9515 18.6856C25.2982 17.4483 27.7515 16.4456 30.3115 15.6776C29.4155 16.531 28.6902 17.5123 28.1355 18.6216ZM37.6075 9.08563C37.6929 9.00029 37.7569 8.95763 37.7995 8.95763L37.9916 8.70163L38.1835 8.57363C38.7382 8.18962 39.3355 8.04029 39.9755 8.12563C40.7009 8.21096 41.2982 8.53096 41.7675 9.08563H41.8316C41.9169 9.21363 42.0022 9.36296 42.0875 9.53363L42.1516 9.59763L42.2155 9.78963C42.3009 10.003 42.3649 10.2163 42.4075 10.4296V10.6216V11.0696L42.3435 11.4536C42.2582 11.8376 42.0875 12.179 41.8316 12.4776C41.7035 12.6483 41.5756 12.7976 41.4475 12.9256L41.1275 13.1176C40.9569 13.203 40.7862 13.2883 40.6155 13.3736L40.2315 13.4376C40.1889 13.4803 40.1035 13.5016 39.9755 13.5016H39.4636C39.2076 13.459 38.9515 13.395 38.6955 13.3096C38.6529 13.3096 38.6102 13.2883 38.5675 13.2456C38.0555 12.9896 37.6609 12.6163 37.3835 12.1256C37.1062 11.635 36.9889 11.1123 37.0315 10.5576L37.0955 10.1096C37.0955 10.0243 37.1169 9.96029 37.1595 9.91763L37.4156 9.34163L37.6075 9.08563ZM28.4555 9.40563C30.2475 9.14963 32.0182 9.1923 33.7675 9.53363C34.1516 9.57629 34.5355 9.64029 34.9195 9.72563L35.3675 9.91763V10.1736C35.3675 10.259 35.3462 10.323 35.3035 10.3656C35.2609 10.9203 35.3035 11.4536 35.4315 11.9656C34.4075 12.1363 33.5542 12.6056 32.8715 13.3736C32.3169 13.459 31.7622 13.5656 31.2075 13.6936L29.2235 14.2696C28.1995 14.5683 27.1115 14.9523 25.9595 15.4216C22.8875 16.659 20.0075 18.2163 17.3195 20.0936C18.2582 17.235 19.7942 14.739 21.9275 12.6056C22.4822 12.0936 23.0475 11.6456 23.6235 11.2616C24.1995 10.8776 24.7862 10.5576 25.3835 10.3016C26.3649 9.87496 27.3889 9.57629 28.4555 9.40563ZM20.5195 25.9176C20.6049 26.003 20.7115 26.067 20.8395 26.1096C21.4795 26.3656 22.1409 26.451 22.8235 26.3656C24.0609 28.5843 25.2982 30.867 26.5355 33.2136C27.8155 35.731 28.7969 37.7363 29.4795 39.2296C29.6075 39.4856 29.7142 39.7416 29.7995 39.9976L30.1195 40.8296C30.1622 41.0003 30.2049 41.1923 30.2475 41.4056C30.2902 42.131 29.5222 42.9203 27.9435 43.7736L27.7515 43.9016L27.1115 44.1576C27.0262 44.1576 26.9409 44.1576 26.8555 44.1576C25.1489 44.5843 24.0395 44.499 23.5275 43.9016C23.2715 43.475 23.0795 43.0056 22.9515 42.4936L22.6955 41.6616C22.6102 41.3203 22.5249 41.0643 22.4395 40.8936C21.7569 38.4616 20.7115 34.067 19.3035 27.7096C19.9009 27.2403 20.3062 26.643 20.5195 25.9176ZM43.6236 40.6376C43.6236 40.9363 43.6022 41.2136 43.5595 41.4696V41.5976C43.4315 42.1523 42.9409 42.5576 42.0875 42.8136C41.5329 42.9843 40.8289 43.0696 39.9755 43.0696C39.1222 43.0696 38.4182 42.9843 37.8635 42.8136C37.0529 42.5576 36.5835 42.1523 36.4555 41.5976C36.3702 41.2563 36.3275 40.915 36.3275 40.5736V39.6776C36.3275 39.4216 36.3489 39.1443 36.3915 38.8456C36.4769 35.6883 37.0102 29.9923 37.9916 21.7576C37.9916 21.459 38.0129 21.1816 38.0555 20.9256C38.0982 20.6696 38.1195 20.435 38.1195 20.2216C38.3329 20.0936 38.5462 19.9656 38.7595 19.8376L38.8876 19.7096C39.0582 19.5816 39.2395 19.411 39.4315 19.1976C39.6236 18.9843 39.7836 18.7496 39.9115 18.4936C40.3382 19.3043 40.9782 19.923 41.8316 20.3496C42.3009 24.1043 42.7062 27.6883 43.0476 31.1016C43.3889 35.027 43.5809 37.907 43.6236 39.7416V40.5736V40.6376ZM46.6315 19.7736C47.5275 19.0056 48.0396 18.0243 48.1675 16.8296C48.1675 16.7443 48.1889 16.7016 48.2315 16.7016C49.1275 17.427 49.8316 18.3016 50.3435 19.3256C51.4529 21.587 51.7302 24.3816 51.1755 27.7096C50.0662 24.851 48.5515 22.2056 46.6315 19.7736ZM46.9515 13.3096C46.2262 12.5416 45.3302 12.115 44.2635 12.0296H43.9436C44.0289 11.7736 44.0715 11.5176 44.0715 11.2616C44.1142 11.0056 44.1142 10.7283 44.0715 10.4296V10.1096L45.0956 9.78963C45.4795 9.66162 45.8635 9.57629 46.2475 9.53363C50.0449 8.85096 53.3942 9.42696 56.2956 11.2616C57.9169 12.3283 59.3249 13.779 60.5196 15.6136C61.3729 16.9363 62.0982 18.4296 62.6955 20.0936C57.9169 16.723 52.6689 14.4616 46.9515 13.3096Z" fill="black"/>
</svg>
