<svg width="183" height="77" viewBox="0 0 183 77" fill="none" xmlns="http://www.w3.org/2000/svg">
<g clip-path="url(#clip0_7023_122)">
<path d="M47.8623 5.38714C47.8623 5.38714 57.6679 0.367614 61.3463 3.56395L65.0247 6.76029C65.0247 6.76029 76.0599 -1.00554 80.1516 0.367613C84.2433 1.74077 92.8193 6.76029 92.8193 6.76029C92.8193 6.76029 76.8761 -0.543978 67.4838 8.58348L73.2081 11.3183C73.2081 11.3183 66.2646 9.49507 62.5862 8.58348L59.7241 9.95663C59.7241 9.95663 65.8513 1.74077 47.8726 5.38714H47.8623Z" fill="#141414" fill-opacity="0.25"/>
<path d="M0.00195312 38.8853C0.00195312 38.8853 5.91218 35.862 8.13368 37.789L10.3552 39.7161C10.3552 39.7161 17.0093 35.0427 19.4685 35.862C21.9276 36.6928 27.1043 39.7161 27.1043 39.7161C27.1043 39.7161 17.495 35.3081 11.8327 40.8123L15.2838 42.4624C15.2838 42.4624 11.0991 41.3662 8.87762 40.8123L7.15209 41.6431C7.15209 41.6431 10.8511 36.6928 0.0122857 38.8968L0.00195312 38.8853Z" fill="#141414" fill-opacity="0.25"/>
<path d="M46.2715 73.0986C46.2715 73.0986 52.1817 70.0754 54.4032 72.0024L56.6247 73.9295C56.6247 73.9295 63.2789 69.2561 65.738 70.0754C68.1972 70.9062 73.3738 73.9295 73.3738 73.9295C73.3738 73.9295 63.7645 69.5215 58.1023 75.0257L61.5533 76.6758C61.5533 76.6758 57.3687 75.5795 55.1472 75.0257L53.4216 75.8565C53.4216 75.8565 57.1207 70.9062 46.2818 73.1102L46.2715 73.0986Z" fill="#141414" fill-opacity="0.25"/>
<path d="M126.111 36.4966C126.111 36.4966 132.022 33.4733 134.243 35.4004L136.465 37.3274C136.465 37.3274 143.119 32.6541 145.578 33.4733C148.037 34.3041 153.214 37.3274 153.214 37.3274C153.214 37.3274 143.604 32.9195 137.942 38.4236L141.393 40.0737C141.393 40.0737 137.208 38.9775 134.987 38.4236L133.261 39.2544C133.261 39.2544 136.961 34.3041 126.122 36.5081L126.111 36.4966Z" fill="#141414" fill-opacity="0.25"/>
<path d="M166.087 12.6105C166.087 12.6105 169.776 10.7181 171.161 11.9182L172.545 13.1183C172.545 13.1183 176.699 10.1989 178.239 10.7181C179.778 11.2374 183.002 13.1183 183.002 13.1183C183.002 13.1183 177.009 10.372 173.465 13.8106L175.614 14.8376C175.614 14.8376 173 14.1452 171.615 13.8106L170.541 14.3299C170.541 14.3299 172.845 11.2374 166.077 12.6105H166.087Z" fill="#141414" fill-opacity="0.25"/>
</g>
<defs>
<clipPath id="clip0_7023_122">
<rect width="183" height="76.4583" fill="white" transform="translate(0.00195312 0.206055)"/>
</clipPath>
</defs>
</svg>
