<svg width="89" height="112" viewBox="0 0 89 112" fill="none" xmlns="http://www.w3.org/2000/svg">
<g opacity="0.05">
<path d="M9.70124 45.5636C9.70124 45.5636 30.5323 47.6622 36.7026 52.7167C42.8729 57.7712 58.895 66.8163 58.895 66.8163C58.895 66.8163 42.6293 61.5848 33.2309 55.9216C23.8439 50.2554 9.68985 45.5667 9.68985 45.5667L9.70124 45.5636Z" fill="black"/>
<path d="M32.0176 20.0627C32.0176 20.0627 36.5753 40.4946 42.3251 46.0285C48.075 51.5624 58.9612 66.3846 58.9612 66.3846C58.9612 66.3846 51.8288 50.8575 45.0937 42.2069C38.3587 33.5563 32.0176 20.0627 32.0176 20.0627Z" fill="black"/>
<path d="M49.1865 15.2705C49.1865 15.2705 46.8472 36.0687 50.4803 43.1733C54.1134 50.2779 59.5835 67.8394 59.5835 67.8394C59.5835 67.8394 57.9011 50.8336 54.3412 40.4618C50.7812 30.0901 49.1865 15.2705 49.1865 15.2705Z" fill="black"/>
<path d="M65.2354 16.2393C65.2354 16.2393 57.121 35.5392 58.6082 43.3799C60.0953 51.2207 60.3812 69.6155 60.3812 69.6155C60.3812 69.6155 63.5672 52.8259 63.074 41.8731C62.5922 30.9172 65.227 16.2537 65.227 16.2537L65.2354 16.2393Z" fill="black"/>
<path d="M80.9542 22.3014C80.9542 22.3014 68.2394 38.9325 67.7067 46.8894C67.174 54.8463 62.8149 72.7207 62.8149 72.7207C62.8149 72.7207 70.123 57.2759 72.4136 46.5507C74.7042 35.8256 80.9512 22.29 80.9512 22.29L80.9542 22.3014Z" fill="black"/>
<path d="M91.5177 30.6178C91.5177 30.6178 76.4927 45.1968 74.7932 52.9915C73.0936 60.7863 66.1658 77.8258 66.1658 77.8258C66.1658 77.8258 75.6638 63.623 79.5039 53.3478C83.344 43.0725 91.5146 30.6064 91.5146 30.6064L91.5177 30.6178Z" fill="black"/>
<path d="M103.987 41.7051C103.987 41.7051 86.4613 53.1601 83.3178 60.4888C80.163 67.8205 70.1118 83.2343 70.1118 83.2343C70.1118 83.2343 82.1433 71.0967 87.8673 61.743C93.5913 52.3892 103.987 41.7051 103.987 41.7051Z" fill="black"/>
<path d="M115.313 54.7109C115.313 54.7109 96.2922 63.4673 92.098 70.2485C87.9037 77.0297 75.6898 90.8034 75.6898 90.8034C75.6898 90.8034 89.3796 80.5638 96.4105 72.1647C103.45 63.7512 115.305 54.7254 115.305 54.7254L115.313 54.7109Z" fill="black"/>
<path d="M124.336 69.4619C124.336 69.4619 104.154 75.0389 98.9252 81.0607C93.6964 87.0826 79.4249 98.6996 79.4249 98.6996C79.4249 98.6996 94.5865 90.7987 102.878 83.6354C111.18 76.4691 124.336 69.4619 124.336 69.4619Z" fill="black"/>
<path d="M9.55873 58.238C9.55873 58.238 30.4714 56.7375 37.4365 60.6624C44.3902 64.5905 61.7539 70.7719 61.7539 70.7719C61.7539 70.7719 44.8043 68.3981 34.5637 64.4144C24.3261 60.4421 9.55567 58.2266 9.55567 58.2266L9.55873 58.238Z" fill="black"/>
<path d="M12.7286 72.7436C12.7286 72.7436 33.223 68.3278 40.6734 71.2432C48.1125 74.1616 66.1722 77.8483 66.1722 77.8483C66.1722 77.8483 49.0511 77.8769 38.365 75.3683C27.6674 72.8627 12.743 72.7519 12.743 72.7519L12.7286 72.7436Z" fill="black"/>
<path d="M17.9792 86.8119C17.9792 86.8119 37.8855 80.2103 45.5931 82.3118C53.3006 84.4132 71.6483 86.1301 71.6483 86.1301C71.6483 86.1301 54.6316 87.9985 43.7347 86.6576C32.8377 85.3166 17.9792 86.8119 17.9792 86.8119Z" fill="black"/>
<path d="M23.1813 100.795C23.1813 100.795 42.2695 92.1061 50.1567 93.3778C58.0522 94.6352 76.4707 94.3917 76.4707 94.3917C76.4707 94.3917 59.7549 98.0594 48.7703 97.8896C37.7856 97.7199 23.1782 100.784 23.1782 100.784L23.1813 100.795Z" fill="black"/>
<path d="M30.1421 117.905C30.1421 117.905 46.9686 105.393 54.9484 104.967C62.9282 104.542 80.8884 100.417 80.8884 100.417C80.8884 100.417 65.321 107.536 54.5436 109.679C43.7806 111.83 30.1421 117.905 30.1421 117.905Z" fill="black"/>
<path d="M59.0612 65.7564C59.0612 65.7564 89.663 115.147 103.457 130.066L101.441 134.918C101.441 134.918 73.3871 98.9428 59.0498 65.7595L59.0612 65.7564Z" fill="black"/>
</g>
</svg>
