<svg width="55" height="45" viewBox="0 0 55 45" fill="none" xmlns="http://www.w3.org/2000/svg">
<path opacity="0.05" d="M11.9494 44.6914C8.34821 44.6914 5.45635 43.3581 3.27381 40.6914C1.09127 38.0247 0 34.6358 0 30.5247C0 26.747 0.982143 22.9136 2.94643 19.0247C4.91071 15.0247 7.42063 11.4136 10.4762 8.19141C13.6409 4.85807 16.9147 2.35807 20.2976 0.691406L25.2083 10.5247C24.2262 11.3025 22.9167 12.4692 21.2798 14.0247C19.752 15.4692 18.3333 17.0803 17.0238 18.8581C15.7143 20.5247 14.8413 22.0247 14.4048 23.3581H15.2232C17.2966 23.3581 19.1518 24.4136 20.7887 26.5247C22.5347 28.6359 23.4077 31.0803 23.4077 33.8581C23.4077 35.9692 22.8075 37.8581 21.6071 39.5247C20.4067 41.0803 18.9335 42.3581 17.1875 43.3581C15.5506 44.247 13.8046 44.6914 11.9494 44.6914ZM42.0685 44.6914C38.3581 44.6914 35.4117 43.3581 33.2292 40.6914C31.0466 38.0247 29.9554 34.6358 29.9554 30.5247C29.9554 26.747 30.9375 22.8581 32.9018 18.8581C34.8661 14.8581 37.376 11.247 40.4315 8.02474C43.5962 4.80252 46.87 2.35807 50.253 0.691406L55 10.5247C54.0179 11.3025 52.7629 12.4692 51.2351 14.0247C49.7073 15.4692 48.2887 17.0247 46.9792 18.6914C45.6696 20.3581 44.7966 21.8581 44.3601 23.1914L45.1786 23.3581C47.252 23.3581 49.1071 24.4136 50.744 26.5247C52.4901 28.6359 53.3631 31.0803 53.3631 33.8581C53.3631 35.9692 52.7629 37.8581 51.5625 39.5247C50.3621 41.0803 48.8889 42.3581 47.1428 43.3581C45.5059 44.247 43.8145 44.6914 42.0685 44.6914Z" fill="black"/>
</svg>
