<svg width="64" height="65" viewBox="0 0 64 65" fill="none" xmlns="http://www.w3.org/2000/svg">
<path d="M63.04 57.5656L50.24 44.7656C49.6 44.1256 48.832 43.8056 47.936 43.8056H35.328L39.104 23.2616L43.392 24.0296L43.456 24.0936L62.016 27.4856H62.208C62.5067 27.4856 62.7413 27.3896 62.912 27.1976C63.0827 27.0056 63.168 26.7603 63.168 26.4616C62.912 22.323 61.8027 18.4616 59.84 14.8776C57.8773 11.2936 55.2533 8.29631 51.968 5.88564C48.6827 3.47498 45.0133 1.86431 40.96 1.05364L40.64 0.989643H40.512C40.384 0.989643 40.2987 0.968311 40.256 0.925644C36.2027 0.242977 32.2133 0.466976 28.288 1.59764C24.3627 2.72831 20.864 4.61631 17.792 7.26164C14.72 9.90698 12.3307 13.107 10.624 16.8616C10.5387 17.1176 10.56 17.3843 10.688 17.6616C10.816 17.939 11.0293 18.099 11.328 18.1416L19.456 19.6776L30.272 21.6616H30.4L34.112 22.3656L30.144 43.8056H18.88L13.44 38.3656L13.952 37.7896C14.4213 37.2776 14.656 36.6803 14.656 35.9976C14.656 35.315 14.4213 34.7176 13.952 34.2056L9.664 29.8536C9.152 29.3416 8.544 29.0856 7.84 29.0856C7.136 29.0856 6.528 29.3416 6.016 29.8536L5.504 30.4296C4.864 29.7896 4.10667 29.4696 3.232 29.4696C2.35733 29.4696 1.6 29.7896 0.96 30.4296C0.32 31.0696 0 31.827 0 32.7016C0 33.5763 0.32 34.3336 0.96 34.9736L15.232 49.3096C15.5307 49.6083 15.8933 49.843 16.32 50.0136L10.176 61.0216C10.048 61.235 10.0267 61.4696 10.112 61.7256C10.1973 61.9816 10.3467 62.1736 10.56 62.3016L13.44 63.9016C13.6533 64.0296 13.888 64.051 14.144 63.9656C14.4 63.8803 14.592 63.731 14.72 63.5176L22.016 50.2056H28.928L26.88 61.4056C26.8373 61.6616 26.8907 61.8963 27.04 62.1096C27.1893 62.323 27.392 62.451 27.648 62.4936L30.848 63.1336C31.104 63.1763 31.3387 63.123 31.552 62.9736C31.7653 62.8243 31.8933 62.6216 31.936 62.3656L34.176 50.2056H46.656L58.496 62.1096C59.136 62.7496 59.8933 63.0696 60.768 63.0696C61.6427 63.0696 62.4 62.7496 63.04 62.1096C63.68 61.4696 64 60.7123 64 59.8376C64 58.963 63.68 58.2056 63.04 57.5656ZM61.76 60.7656C61.504 61.0216 61.184 61.1496 60.8 61.1496C60.416 61.1496 60.096 61.0216 59.84 60.7656L47.68 48.6056C47.5093 48.435 47.296 48.3496 47.04 48.3496H17.536C17.152 48.3496 16.832 48.2216 16.576 47.9656L2.304 33.6296C2.13333 33.3736 2.06933 33.0856 2.112 32.7656C2.15467 32.4456 2.28267 32.179 2.496 31.9656C2.70933 31.7523 2.976 31.6243 3.296 31.5816C3.616 31.539 3.904 31.603 4.16 31.7736L17.792 45.4056C17.9627 45.619 18.1973 45.7256 18.496 45.7256H47.936C48.32 45.7256 48.64 45.8536 48.896 46.1096L61.76 58.9096C62.016 59.1656 62.144 59.475 62.144 59.8376C62.144 60.2003 62.016 60.5096 61.76 60.7656ZM28.928 60.8296L30.848 50.2056H32.256L30.208 61.0856L28.928 60.8296ZM12.288 61.0856L18.304 50.2056H19.904L13.504 61.7896L12.288 61.0856ZM7.36 31.1976C7.488 31.0696 7.648 31.0056 7.84 31.0056C8.032 31.0056 8.192 31.0696 8.32 31.1976L12.672 35.4856C12.8 35.6136 12.864 35.7843 12.864 35.9976C12.864 36.211 12.8 36.3816 12.672 36.5096L12.16 36.9576L6.912 31.7096L7.36 31.1976ZM30.464 2.97364C28.1173 4.38165 25.9413 6.34431 23.936 8.86164C21.9307 11.379 20.288 14.3016 19.008 17.6296L12.864 16.5416C14.6133 13.0856 17.0347 10.163 20.128 7.77364C23.2213 5.38431 26.6667 3.78431 30.464 2.97364ZM61.184 25.3736L54.784 24.2216C54.7413 20.595 54.2187 17.2243 53.216 14.1096C52.2133 10.995 50.816 8.37098 49.024 6.23764C52.3947 8.32831 55.1467 11.0483 57.28 14.3976C59.4133 17.747 60.6933 21.4056 61.12 25.3736H61.184ZM49.408 10.0776C51.712 14.387 52.864 18.9736 52.864 23.8376L44.608 22.3656C45.376 17.843 45.5893 13.875 45.248 10.4616C44.9493 7.90165 44.352 5.74698 43.456 3.99764C46.016 5.44831 48 7.47498 49.408 10.0776ZM42.752 22.0456L39.488 21.4056L38.528 21.2776L35.328 20.6376L34.432 20.5096L31.68 19.9976C32.4053 16.4136 33.344 13.299 34.496 10.6536C35.3493 8.64831 36.3093 6.98431 37.376 5.66164C38.2293 4.55231 39.2747 3.67764 40.512 3.03764C41.4507 4.06165 42.112 5.25631 42.496 6.62164C43.0507 8.20031 43.3707 10.099 43.456 12.3176C43.584 15.1763 43.3493 18.419 42.752 22.0456ZM37.696 2.65364C36.2027 3.93364 34.8373 5.74698 33.6 8.09364C32.0213 11.1656 30.7627 15.027 29.824 19.6776L20.864 18.0136C22.5707 13.4483 25.28 9.54431 28.992 6.30164C30.1867 5.23498 31.5307 4.39231 33.024 3.77364C34.5173 3.15498 36.0747 2.78164 37.696 2.65364ZM37.248 22.9416L33.408 43.8056H32.064L35.968 22.6856L37.248 22.9416Z" fill="#735C2B"/>
</svg>
