<svg width="229" height="263" viewBox="0 0 229 263" fill="none" xmlns="http://www.w3.org/2000/svg">
<path d="M67.1748 125.226C68.4583 125.031 68.4293 123.774 68.8208 122.892C71.1775 117.604 72.7654 111.16 75.1293 106.06C75.4629 105.344 75.5499 104.362 76.5941 104.275C77.0654 107.772 76.5868 113.537 77.341 116.788C80.1834 128.997 80.9665 143.229 83.3594 156.421C86.1294 171.715 90.3496 186.786 95.4689 201.43C92.5467 202.398 89.726 202.6 86.7602 201.805C85.368 202.867 94.1202 203.929 95.0701 203.994C105.04 204.666 116.932 203.886 126.794 202.311C160.178 196.979 192.113 175.689 226.636 185.976L226.701 192.413C193.585 183.506 163.659 203.568 131.877 208.105C121.595 209.572 111.871 208.64 101.611 209.03C100.733 209.066 98.9132 208.488 99.0872 209.745C119.485 216.579 141.927 216.572 163.166 213.993C180.445 211.898 196.826 206.559 214.541 209.225C216.535 209.528 224.844 211.32 225.99 212.266C227.404 213.437 226.476 216.717 226.701 218.422C201.778 211.891 177.197 221.477 152.369 222.749C138.418 223.464 123.27 221.788 109.797 218.219C79.0232 210.048 53.6586 188.324 20.8035 186.598L19.6868 122.336L14.9445 124.121L14.1977 126.266C14.3209 150.851 14.1832 175.436 14.2049 200.028C14.2194 216.102 14.6255 232.365 14.6835 248.526C14.7052 254.269 13.6466 260.692 14.1977 266.5C14.2847 267.454 14.1904 268.415 15.2926 268.812L232.502 269C232.545 218.783 232.444 168.551 232.465 118.334C232.48 76.4031 222.162 44.0592 186.319 19.1637C139.774 -13.1658 76.1735 -3.18157 39.2288 38.518C37.9816 40.1074 43.2967 42.8527 43.9855 42.542C54.6738 29.8775 69.7925 18.9397 85.3173 12.9001C152.811 -13.3536 223.837 33.0852 227.462 104.607C227.825 111.745 227.462 119.446 227.462 125.587C227.382 140.405 226.802 155.208 226.708 170.018C208.276 166.557 190.314 168.79 172.875 175.255C150.65 183.499 129.491 196.163 105.628 200.368C97.289 179.633 89.9943 159.102 86.2744 136.922C85.5348 132.501 83.1057 119.959 84.0483 116.369C84.3093 115.379 85.513 114.404 85.8973 113.161C87.6231 107.598 88.3628 103.372 86.0496 97.773C90.5454 101.66 94.2652 107.584 100.545 108.603L94.0259 95.2373C93.9099 94.7026 94.7873 94.746 95.0991 94.8833C95.8387 95.2156 101.444 101.082 102.3 102.166C106.135 107.035 107.209 112.887 113.952 115.119C113.017 109.115 110.798 103.004 107.071 98.1343C108.724 97.5852 112.292 101.602 113.575 103.213C118.245 109.058 117.897 113.19 120.514 118.695C121.24 120.219 124.459 122.199 125.561 123.781C126.54 118.587 124.292 113.537 123.342 108.646C123.197 107.902 122.393 106.276 123.741 106.45C125.083 109.766 126.881 112.793 128.114 116.181C130.086 121.599 130.057 127.877 134.625 131.728V117.279L139.179 128.997C140.158 134.069 140.535 138.945 145.502 141.842V128.477C145.502 110.618 123.589 86.2139 105.258 86.2139H86.7675L94.1709 83.1146L103.438 81.1496L96.194 80.4271C95.9982 79.4879 97.5427 79.2712 98.1808 79.1701C104.656 78.1803 109.732 80.5138 114.721 80.326C116.671 80.2537 119.195 77.913 121.573 78.2526C121.907 76.3742 121.312 77.14 120.543 76.7499C118.861 75.8974 115.613 74.7126 113.749 74.1346C111.276 73.3688 107.745 73.7951 106.346 71.765C113.996 71.122 120.282 72.4513 127.345 75.0377C131.406 76.5259 133.248 79.105 138.251 77.5373L126.656 68.8824C133.835 68.709 139.208 74.1491 144.777 76.4609C147.518 77.6023 150.563 77.3928 153.123 78.9822C154.203 78.4259 153.21 77.7324 152.768 77.1689C150.926 74.8282 148.548 72.5741 146.234 70.6741C146.118 70.1322 146.931 70.2117 147.308 70.3273C154.639 72.6175 159.99 81.0773 168.706 79.3507C160.468 70.6958 149.795 61.9975 137.707 59.664C115.729 55.4305 95.8895 67.9432 80.981 82.5944C80.0601 74.5103 90.5018 71.5194 90.4076 63.4569C89.6389 62.207 88.8123 63.7675 88.225 64.1721C86.84 65.1113 82.9099 68.4851 82.0542 68.8608C81.1986 69.2364 80.633 68.6657 80.981 67.7915C82.9243 62.98 89.1531 57.7351 93.3588 54.8308C96.6073 52.5913 99.7906 53.1259 100.559 48.271C100.74 47.1079 100.596 47.0718 99.5078 47.2235C94.8163 47.8592 89.668 47.917 85.6798 50.7996C85.1795 50.9585 85.1505 50.0483 85.3245 49.7304C85.8611 48.7406 91.9594 44.7672 93.3878 44.0375C95.9547 42.7226 101.922 41.4295 103.416 40.3025C103.663 40.1146 106.948 35.556 107.071 35.267C107.702 33.8077 106.056 34.2411 105.265 34.1833C101.893 33.9522 98.8769 35.0575 95.6212 35.4332C94.8235 35.5271 93.1413 36.264 93.3008 34.9275C96.8249 33.367 99.8559 30.9757 103.46 29.5091C106.215 28.3893 110.689 27.833 112.828 26.5615C114.967 25.29 117.911 20.1029 120.13 18.3112C101.85 20.3629 83.577 28.4543 77.5512 47.0429C77.0726 48.5094 75.1729 55.2715 75.1729 56.2324V79.3507C74.4695 80.0514 74.1867 80.875 72.983 80.0876C71.714 79.2567 65.8333 70.8836 63.9408 68.8608C48.0607 51.8255 30.8971 45.8292 8.2662 55.3149C6.04735 56.2469 -0.0798798 58.248 1.57338 60.9283L25.8576 58.761C26.2564 60.6827 25.3645 60.0036 24.4291 60.5526C21.4343 62.3082 18.0698 63.6736 14.9881 65.2702C20.5932 71.0714 25.0599 65.5014 30.7884 64.0276C34.4647 63.0812 38.0251 62.915 41.8102 63.0956C42.2162 65.1835 41.2083 64.2515 40.2222 64.7211C36.9591 66.2888 33.8991 67.7121 31.1364 70.1034C30.6288 70.5441 29.766 70.0745 30.2155 71.7505C36.321 74.6187 40.0626 71.5699 45.8201 71.0498C49.0541 70.7536 54.7897 70.7391 57.9585 71.2232C58.5966 71.3243 60.1412 71.5338 59.9454 72.4802C55.2249 72.1118 50.4971 73.2388 46.1754 75.0304C45.4865 75.3194 44.5148 75.1027 44.7324 76.0924C51.534 80.0876 59.6335 79.1628 67.2038 81.164C67.269 82.226 64.6006 82.4355 63.861 82.515C55.4496 83.3747 47.4516 83.2013 39.0547 85.2603C19.3967 90.0718 6.94647 104.925 0.500183 123.427C0.913498 124.424 1.8634 123.507 2.45074 123.203C4.24179 122.271 11.6888 117.915 12.7909 116.889C14.698 115.105 17.4897 108.003 19.7811 105.07C21.6229 102.715 24.2333 100.742 26.2491 98.5099L21.5504 113.342C21.2603 114.266 21.7171 114.751 22.609 114.389C28.2142 112.135 30.6144 104.275 34.6098 99.6081C36.3863 97.5346 38.4166 95.6274 40.7588 94.1753L37.3652 100.908L34.9578 107.902C42.8689 106.038 45.9143 97.8742 53.0858 94.1753L48.0752 101.465L46.9222 104.282L66.4932 94.1753C60.656 101.291 52.4259 106.739 47.5023 114.62C37.4667 130.673 40.4397 152.462 46.9295 169.302L49.1411 161.724L47.6474 140.405C50.4101 143.164 50.6639 148.352 52.5492 151.761C53.006 152.592 52.5056 152.982 54.1662 152.686C53.5136 150.461 55.2829 148.193 55.3916 146.451C55.6309 142.442 54.0502 137.233 54.1372 132.79C54.2024 129.423 55.3191 125.082 55.6237 121.628L59.9599 138.96C59.8438 136.453 62.476 133.996 62.8386 132.068C63.2882 129.676 62.5703 126.671 62.8821 124.164C63.5782 118.594 65.13 113.298 66.5004 107.895C69.3139 107.555 67.2183 109.072 67.2183 109.701V125.233L67.1748 125.226ZM20.7672 191.691C58.3646 201.863 80.8505 234.2 120.101 241.908C154.921 248.75 184.687 231.787 219.116 234.286C221.248 234.438 223.322 235.124 225.475 235.175L226.701 236.121V262.491H20.7672V191.691Z" fill="#5D6142"/>
</svg>
