<svg width="94" height="108" viewBox="0 0 94 108" fill="none" xmlns="http://www.w3.org/2000/svg">
<path d="M66.381 50.2766C65.8657 50.1983 65.8774 49.6936 65.7202 49.3397C64.774 47.2166 64.1365 44.6293 63.1874 42.5815C63.0535 42.2944 63.0185 41.8999 62.5993 41.8651C62.4101 43.2689 62.6022 45.5836 62.2994 46.8888C61.1582 51.7907 60.8438 57.5047 59.8831 62.8011C58.771 68.9415 57.0766 74.992 55.0213 80.8714C56.1945 81.26 57.327 81.3413 58.5177 81.0222C59.0767 81.4486 55.5628 81.875 55.1814 81.9011C51.1785 82.1708 46.404 81.8576 42.4447 81.2252C29.0413 79.0846 16.2201 70.5368 2.35961 74.6671L2.33341 77.2515C15.6291 73.6752 27.6439 81.7299 40.4039 83.5515C44.532 84.1403 48.436 83.7661 52.5555 83.9227C52.9077 83.9372 53.6385 83.7052 53.5686 84.2099C45.3792 86.9538 36.3689 86.9509 27.8418 85.9154C20.9043 85.0742 14.3278 82.9308 7.21558 84.001C6.41498 84.1229 3.07869 84.8422 2.61871 85.2222C2.05102 85.692 2.42365 87.0089 2.33341 87.6934C12.3394 85.0713 22.2085 88.9203 32.1767 89.4308C37.7779 89.718 43.8595 89.0451 49.2687 87.6122C61.624 84.3317 71.8076 75.6098 84.9985 74.9166L85.4468 49.1164L87.3508 49.8328L87.6506 50.6943C87.6012 60.5648 87.6565 70.4353 87.6477 80.3087C87.6419 86.7623 87.4789 93.2914 87.4556 99.7799C87.4469 102.086 87.8719 104.664 87.6506 106.996C87.6157 107.379 87.6536 107.765 87.211 107.925L0.00440149 108C-0.013066 87.8384 0.027688 67.6711 0.0189542 47.5095C0.0131317 30.6748 4.15585 17.6892 18.5462 7.69397C37.2335 -5.28589 62.7681 -1.27736 77.601 15.4645C78.1017 16.1026 75.9678 17.2048 75.6912 17.0801C71.4 11.9954 65.3301 7.60405 59.0971 5.17921C31.9991 -5.3613 3.48335 13.2833 2.02773 41.9985C1.88216 44.8642 2.02773 47.9562 2.02773 50.4216C2.05975 56.3706 2.29265 62.3138 2.33049 68.2599C9.7309 66.8705 16.9421 67.7668 23.9437 70.3628C32.8667 73.6723 41.3617 78.7569 50.9426 80.445C54.2906 72.1205 57.2193 63.8772 58.7128 54.9726C59.0097 53.1974 59.985 48.1621 59.6065 46.7206C59.5017 46.3232 59.0185 45.9316 58.8642 45.4327C58.1713 43.1993 57.8743 41.5025 58.803 39.2546C56.998 40.8151 55.5046 43.1935 52.9834 43.6025L55.6006 38.2365C55.6472 38.0219 55.295 38.0393 55.1698 38.0944C54.8728 38.2278 52.6224 40.583 52.2789 41.0181C50.7388 42.9731 50.308 45.3225 47.6005 46.2188C47.9761 43.8084 48.8669 41.3546 50.3633 39.3996C49.6995 39.1792 48.2672 40.7919 47.7519 41.4387C45.8771 43.7852 46.0168 45.4443 44.9658 47.6545C44.6747 48.2665 43.3821 49.0613 42.9396 49.6965C42.5466 47.611 43.4491 45.5836 43.8304 43.6199C43.8887 43.3211 44.2118 42.6685 43.6703 42.7381C43.1317 44.0695 42.4097 45.2848 41.9148 46.6452C41.123 48.8206 41.1346 51.3411 39.3005 52.8871V47.086L37.4723 51.7907C37.0792 53.8269 36.9279 55.7847 34.9336 56.9478V51.5819C34.9336 44.4117 43.7314 34.6138 51.0911 34.6138H58.5148L55.5424 33.3694L51.8218 32.5805L54.7302 32.2904C54.8088 31.9134 54.1887 31.8264 53.9325 31.7858C51.3327 31.3884 49.2949 32.3252 47.2919 32.2498C46.5088 32.2208 45.4957 31.2811 44.5408 31.4174C44.4069 30.6632 44.6456 30.9707 44.9542 30.8141C45.6296 30.4718 46.9338 29.9961 47.682 29.7641C48.6748 29.4566 50.0925 29.6278 50.6544 28.8127C47.583 28.5546 45.059 29.0883 42.2234 30.1266C40.5931 30.7242 39.8537 31.7596 37.8449 31.1302L42.5 27.6554C39.6179 27.5858 37.4606 29.7699 35.2248 30.6981C34.1243 31.1563 32.9016 31.0722 31.8739 31.7103C31.4401 31.487 31.839 31.2085 32.0166 30.9823C32.756 30.0425 33.7109 29.1376 34.6396 28.3747C34.6862 28.1572 34.3601 28.1891 34.2087 28.2355C31.2655 29.155 29.117 32.5515 25.6176 31.8583C28.9248 28.3834 33.2102 24.8912 38.0632 23.9543C46.8873 22.2546 54.8525 27.2783 60.838 33.1606C61.2077 29.9149 57.0155 28.7141 57.0534 25.4771C57.362 24.9753 57.6938 25.6018 57.9296 25.7643C58.4857 26.1413 60.0636 27.4959 60.4071 27.6467C60.7506 27.7975 60.9777 27.5684 60.838 27.2174C60.0578 25.2857 57.557 23.1799 55.8685 22.0139C54.5642 21.1147 53.2862 21.3294 52.9776 19.3802C52.9048 18.9132 52.963 18.8987 53.3997 18.9596C55.2833 19.2149 57.3503 19.2381 58.9515 20.3954C59.1524 20.4592 59.164 20.0937 59.0941 19.9661C58.8787 19.5687 56.4303 17.9734 55.8568 17.6805C54.8262 17.1526 52.4303 16.6334 51.8306 16.1809C51.7316 16.1055 50.4128 14.2753 50.3633 14.1592C50.11 13.5733 50.7709 13.7474 51.0882 13.7242C52.4419 13.6314 53.653 14.0751 54.9602 14.226C55.2804 14.2637 55.9558 14.5595 55.8918 14.0229C54.4769 13.3964 53.26 12.4363 51.8131 11.8475C50.7068 11.3979 48.9106 11.1746 48.0518 10.6641C47.1929 10.1536 46.011 8.07104 45.1201 7.35171C52.4594 8.17546 59.7958 11.424 62.215 18.8871C62.4072 19.4759 63.1699 22.1908 63.1699 22.5766V31.8583C63.4523 32.1396 63.5658 32.4703 64.0491 32.1541C64.5586 31.8206 66.9196 28.4588 67.6794 27.6467C74.0551 20.8073 80.946 18.3998 90.032 22.2082C90.9229 22.5824 93.3829 23.3858 92.7191 24.4619L82.9693 23.5918C82.8092 24.3633 83.1673 24.0907 83.5429 24.3111C84.7452 25.0159 86.096 25.5641 87.3333 26.2051C85.0829 28.5343 83.2896 26.298 80.9897 25.7062C79.5137 25.3263 78.0843 25.2596 76.5646 25.3321C76.4015 26.1703 76.8062 25.7962 77.2021 25.9847C78.5122 26.6141 79.7408 27.1855 80.85 28.1456C81.0537 28.3225 81.4002 28.134 81.2197 28.8069C78.7684 29.9584 77.2662 28.7344 74.9547 28.5256C73.6562 28.4066 71.3534 28.4008 70.0812 28.5952C69.825 28.6358 69.2049 28.7199 69.2835 29.0999C71.1788 28.9519 73.0769 29.4044 74.812 30.1237C75.0886 30.2398 75.4787 30.1528 75.3914 30.5501C72.6606 32.1541 69.4087 31.7829 66.3694 32.5863C66.3432 33.0127 67.4145 33.0968 67.7115 33.1287C71.0885 33.4739 74.2996 33.4042 77.6709 34.2309C85.5633 36.1626 90.5619 42.1261 93.15 49.5544C92.9841 49.9547 92.6027 49.5863 92.3669 49.4645C91.6478 49.0903 88.6579 47.3413 88.2154 46.9294C87.4498 46.213 86.3289 43.3618 85.409 42.1841C84.6695 41.2386 83.6215 40.4467 82.8121 39.5505L84.6986 45.5052C84.8151 45.8765 84.6317 46.0708 84.2736 45.9258C82.0232 45.0209 81.0596 41.8651 79.4555 39.9913C78.7422 39.1589 77.927 38.3931 76.9867 37.8101L78.3492 40.5134L79.3157 43.3211C76.1395 42.5728 74.9168 39.2952 72.0376 37.8101L74.0493 40.7368L74.5122 41.868L66.6547 37.8101C68.9982 40.6672 72.3025 42.8542 74.2793 46.0186C78.3084 52.4636 77.1148 61.2116 74.5092 67.9727L73.6213 64.9301L74.221 56.3706C73.1118 57.4786 73.0099 59.5612 72.253 60.9303C72.0696 61.2638 72.2705 61.4204 71.6038 61.3015C71.8658 60.4082 71.1555 59.4974 71.1118 58.7984C71.0157 57.1886 71.6504 55.0973 71.6154 53.3135C71.5892 51.9618 71.1409 50.2186 71.0186 48.8321L69.2777 55.7905C69.3243 54.784 68.2675 53.7979 68.1219 53.0234C67.9414 52.0633 68.2297 50.8567 68.1045 49.8502C67.825 47.6139 67.202 45.4878 66.6518 43.3183C65.5222 43.1819 66.3635 43.791 66.3635 44.0434V50.2795L66.381 50.2766ZM85.013 76.9615C69.9182 81.0454 60.8904 94.0282 45.1318 97.123C31.1519 99.8698 19.2012 93.0594 5.37858 94.063C4.52267 94.1239 3.69005 94.3994 2.82541 94.4197L2.33341 94.7997V105.387H85.013V76.9615Z" fill="#5D6142"/>
<path d="M85.0502 85.725V105.632L2.7002 105.975V98.1299L3.19018 97.9514C4.05137 97.9392 4.88067 97.7462 5.73317 97.7015C19.5007 96.9987 31.4067 101.768 45.3279 99.8446C61.0237 97.6772 70.0155 88.5851 85.0502 85.725Z" fill="#D4C797"/>
<path d="M2.23242 65.2149L2.02958 55.8736C8.43797 47.25 18.5629 50.9625 21.2368 52.828C28.0128 58.05 24.8237 65.6005 22.7339 67.9823C15.3938 63.4688 6.00788 64.2567 2.23242 65.2149Z" fill="#D0B47A"/>
</svg>
